<svg width="199" height="199" viewBox="0 0 199 199" fill="none" xmlns="http://www.w3.org/2000/svg">
<path d="M35.2011 176.001C71.1043 197.189 129.315 197.189 165.217 176.002C201.121 154.813 201.121 120.461 165.217 99.2728C129.314 78.0844 71.1035 78.0844 35.2003 99.2723C-0.702468 120.46 -0.702468 154.813 35.2011 176.001Z" fill="#F5F5F5"/>
<path d="M155.673 171.559C165.387 171.559 173.261 167.013 173.261 161.405C173.261 155.797 165.387 151.25 155.673 151.25C145.959 151.25 138.085 155.797 138.085 161.405C138.085 167.013 145.959 171.559 155.673 171.559Z" fill="#E0E0E0"/>
<path d="M144.641 30.7005L147.693 32.4629C147.678 32.3268 147.667 32.191 147.667 32.0589V31.1746C147.667 29.6013 148.772 28.9633 150.134 29.7501C150.686 30.0685 151.193 30.5736 151.605 31.1642C151.828 29.1857 153.38 28.4486 155.265 29.5372C157.304 30.7141 158.957 33.5765 158.957 35.9307V37.2536C158.957 37.8633 158.844 38.3768 158.644 38.7859L161.18 40.2493C161.935 40.686 162.548 41.747 162.548 42.6198C162.548 43.4927 161.936 43.8465 161.18 43.4099L144.641 33.8611C143.885 33.4244 143.272 32.3634 143.272 31.4906C143.272 30.6181 143.885 30.2643 144.641 30.7005Z" fill="#EBEBEB"/>
<path d="M131.58 39.5935L133.883 40.9232C133.871 40.8205 133.863 40.7182 133.863 40.6183V39.9509C133.863 38.7632 134.697 38.282 135.726 38.8759C136.142 39.1162 136.525 39.4975 136.835 39.9433C137.004 38.45 138.175 37.894 139.598 38.7155C141.137 39.6038 142.384 41.7641 142.384 43.5408V44.539C142.384 44.9991 142.299 45.3867 142.148 45.6956L144.061 46.8C144.632 47.1292 145.094 47.9304 145.094 48.589C145.094 49.2477 144.632 49.5148 144.061 49.1853L131.579 41.9787C131.008 41.6495 130.546 40.8483 130.546 40.1897C130.547 39.5314 131.009 39.2643 131.58 39.5935Z" fill="#EBEBEB"/>
<path d="M29.4026 114.872C29.1774 114.994 25.0163 116.175 23.4744 114.139C21.933 112.103 24.4905 108.929 23.0446 107.759C21.5987 106.59 17.5462 107.766 16.5707 105.302C15.5952 102.838 18.4867 101.782 16.8617 99.3022C15.838 97.74 13.325 96.8652 13.1038 95.4213C12.7336 93.0078 16.7331 91.899 20.1535 94.1772C23.5739 96.4557 25.6423 95.4117 26.7277 95.2589C27.813 95.1061 30.1525 95.4432 30.0777 99.2528C30.0028 103.063 29.4026 114.872 29.4026 114.872Z" fill="#A51C05" fill-opacity="0.87"/>
<path d="M29.6777 109.454C29.5686 109.454 29.4727 109.375 29.4544 109.264C28.2632 102.034 19.859 96.1496 15.489 94.8868C15.3688 94.8522 15.2991 94.7264 15.3341 94.6062C15.3688 94.4864 15.4945 94.4171 15.6147 94.4514C20.0835 95.7425 28.6795 101.772 29.9017 109.19C29.922 109.313 29.8381 109.431 29.7147 109.451C29.7023 109.453 29.69 109.454 29.6777 109.454Z" fill="white"/>
<path d="M19.7691 103.402C19.6914 103.402 19.6162 103.363 19.5736 103.292C19.51 103.184 19.545 103.045 19.6528 102.981C19.789 102.9 23.0223 101.01 26.2083 101.894C26.3289 101.927 26.3997 102.052 26.3659 102.173C26.3325 102.294 26.2087 102.366 26.0869 102.331C23.0896 101.499 19.9155 103.352 19.8841 103.371C19.8479 103.392 19.8081 103.402 19.7691 103.402Z" fill="white"/>
<path d="M31.0157 117.648C31.0157 118.679 31.7875 119.961 32.7395 120.51L81.0272 148.389C81.9788 148.938 83.5223 148.938 84.4739 148.389L150.545 110.243C151.496 109.693 152.268 108.412 152.268 107.381C152.268 106.35 151.497 105.068 150.545 104.519L102.257 76.6401C101.305 76.0904 99.7619 76.0904 98.8103 76.6401L32.7391 114.787C31.7871 115.336 31.0157 116.618 31.0157 117.648Z" fill="#37474F"/>
<path d="M82.751 145.071V148.8C82.1261 148.8 81.5012 148.665 81.0276 148.39L32.7383 120.51C31.7871 119.961 31.0149 118.68 31.0149 117.649C31.0149 116.682 31.6955 115.496 32.5632 114.899C31.791 115.452 31.8507 116.264 32.7383 116.777L81.0276 144.657C81.5012 144.932 82.1265 145.071 82.751 145.071Z" fill="#263238"/>
<path d="M29.3991 114.848C28.5063 114.333 27.7824 113.024 27.7824 111.925L27.782 54.3007C27.782 53.2019 28.5537 51.8654 29.5053 51.3157L95.5765 13.1698C96.5281 12.6202 98.0238 12.5927 98.9165 13.1081C99.8096 13.6235 100.534 14.9326 100.534 16.0314V73.6559C100.534 74.7548 99.7619 76.0912 98.8103 76.6409L32.7391 114.787C31.7871 115.336 30.2918 115.364 29.3991 114.848Z" fill="#455A64"/>
<path d="M32.5353 114.891C31.5841 115.336 30.2309 115.328 29.3991 114.847C28.5075 114.333 27.7832 113.024 27.7832 111.926V54.2991C27.7832 53.7499 27.9742 53.141 28.2886 52.6037L31.5204 54.4663V54.4703C31.21 55.0116 31.0149 55.6165 31.0149 56.1658V113.792C31.0149 114.811 31.68 115.269 32.5353 114.891Z" fill="#263238"/>
<path d="M31.0157 56.1674V113.792C31.0157 114.891 31.7875 115.336 32.7391 114.787L98.8103 76.6409C99.7619 76.0913 100.534 74.7548 100.534 73.6559V16.0315C100.534 14.9326 99.7619 14.4868 98.8103 15.0365L32.7391 53.1824C31.7871 53.732 31.0157 55.0685 31.0157 56.1674Z" fill="#37474F"/>
<path d="M32.7391 116.777L81.0272 144.655C81.9788 145.205 83.5223 145.205 84.4739 144.655L150.545 106.51C151.497 105.96 151.497 105.069 150.545 104.52L102.257 76.6409C101.306 76.0912 99.7623 76.0912 98.8107 76.6409L32.7391 114.787C31.7871 115.336 31.7871 116.227 32.7391 116.777Z" fill="#455A64"/>
<path d="M33.666 56.3807L97.3671 19.6127C97.9382 19.2831 98.4011 19.5502 98.4011 20.2097V70.0926C98.4011 70.7521 97.9382 71.554 97.3671 71.8836L33.666 108.651C33.0949 108.98 32.632 108.713 32.632 108.054V58.1713C32.632 57.5122 33.0949 56.7102 33.666 56.3807Z" fill="white"/>
<path opacity="0.6" d="M33.666 56.3807L97.3671 19.6127C97.9382 19.2831 98.4011 19.5502 98.4011 20.2097V70.0926C98.4011 70.7521 97.9382 71.554 97.3671 71.8836L33.666 108.651C33.0949 108.98 32.632 108.713 32.632 108.054V58.1713C32.632 57.5122 33.0949 56.7102 33.666 56.3807Z" fill="#A51C05" fill-opacity="0.87"/>
<path d="M65.3807 53.2265C67.0765 52.2471 68.4516 53.0411 68.4516 54.9992C68.4516 56.9578 67.0765 59.339 65.3807 60.3181C63.6848 61.2972 62.3097 60.5036 62.3097 58.545C62.3097 56.5869 63.6848 54.2056 65.3807 53.2265Z" fill="#F0F0F0"/>
<path d="M71.4326 63.6999C71.4326 60.4825 69.1736 59.0541 66.3876 60.6628L64.6455 61.6681C61.8595 63.2768 59.6005 67.1892 59.6005 70.4066V71.2726L71.4326 64.4462V63.6999Z" fill="#F0F0F0"/>
<path d="M77.4158 65.2895C77.3031 65.03 77.0174 64.9643 76.6938 65.1498L56.0308 77.0723C55.8227 77.1921 55.6285 77.4007 55.4915 77.643C55.3518 77.8826 55.2675 78.1509 55.2675 78.3965V80.8278C55.2675 81.2418 55.5142 81.4443 55.8482 81.35C55.8828 81.3401 55.9023 81.3329 55.9023 81.3329C55.948 81.3158 55.9906 81.2931 56.0308 81.27L76.6938 69.3475C77.1161 69.1051 77.4588 68.5113 77.4588 68.0234V65.592C77.4584 65.4953 77.4472 65.3735 77.4158 65.2895Z" fill="#F0F0F0"/>
<path d="M57.8983 77.3736C58.299 77.1424 58.6242 77.3298 58.6242 77.7927C58.6242 78.2556 58.2994 78.8183 57.8983 79.05C57.4971 79.2816 57.1723 79.0938 57.1723 78.6309C57.1723 78.168 57.4971 77.6048 57.8983 77.3736Z" fill="#A51C05" fill-opacity="0.87"/>
<path d="M60.2994 75.9874C60.7002 75.7557 61.0253 75.9436 61.0253 76.4065C61.0253 76.8693 60.7002 77.4321 60.2994 77.6637C59.8986 77.895 59.5734 77.7075 59.5734 77.2446C59.5734 76.7818 59.8982 76.2186 60.2994 75.9874Z" fill="#A51C05" fill-opacity="0.87"/>
<path d="M62.7005 74.6007C63.1013 74.3695 63.4265 74.557 63.4265 75.0198C63.4265 75.4827 63.1017 76.0455 62.7005 76.2771C62.2993 76.5087 61.9746 76.3209 61.9746 75.858C61.9746 75.3951 62.2993 74.8324 62.7005 74.6007Z" fill="#A51C05" fill-opacity="0.87"/>
<path d="M65.1017 73.2145C65.5024 72.9829 65.8276 73.1707 65.8276 73.6336C65.8276 74.0965 65.5028 74.6592 65.1017 74.8909C64.7005 75.1225 64.3757 74.9346 64.3757 74.4718C64.3757 74.0089 64.7005 73.4461 65.1017 73.2145Z" fill="#A51C05" fill-opacity="0.87"/>
<path d="M67.5028 71.8283C67.9036 71.597 68.2287 71.7845 68.2287 72.2474C68.2287 72.7102 67.9036 73.273 67.5028 73.5046C67.102 73.7359 66.7768 73.5484 66.7768 73.0855C66.7768 72.6227 67.1016 72.0599 67.5028 71.8283Z" fill="#A51C05" fill-opacity="0.87"/>
<path d="M69.9035 70.442C70.3043 70.2108 70.6295 70.3982 70.6295 70.8611C70.6295 71.324 70.3047 71.8868 69.9035 72.1184C69.5023 72.35 69.1776 72.1622 69.1776 71.6993C69.1776 71.2364 69.5027 70.6737 69.9035 70.442Z" fill="#A51C05" fill-opacity="0.87"/>
<path d="M72.3047 69.0558C72.7054 68.8246 73.0306 69.012 73.0306 69.4749C73.0306 69.9378 72.7058 70.5005 72.3047 70.7322C71.9039 70.9638 71.5787 70.776 71.5787 70.3131C71.5787 69.8502 71.9039 69.2874 72.3047 69.0558Z" fill="#A51C05" fill-opacity="0.87"/>
<path d="M74.7058 67.6696C75.1066 67.4383 75.4317 67.6258 75.4317 68.0887C75.4317 68.5515 75.107 69.1143 74.7058 69.3459C74.305 69.5772 73.9798 69.3897 73.9798 68.9268C73.9802 68.464 74.305 67.9008 74.7058 67.6696Z" fill="#A51C05" fill-opacity="0.87"/>
<path d="M38.3441 115.285L99.6723 79.8774C100.148 79.6028 100.92 79.6028 101.396 79.8774L104.532 81.6883C105.008 81.9629 105.008 82.4087 104.532 82.6833L43.1949 118.085C42.7189 118.36 41.9472 118.36 41.4716 118.085L38.3441 116.28C37.8681 116.005 37.8681 115.559 38.3441 115.285Z" fill="#37474F"/>
<path d="M46.4283 119.952L107.756 84.5436C108.232 84.2689 109.003 84.2689 109.479 84.5436L128.773 95.6832C129.249 95.9578 129.249 96.4036 128.773 96.6782L67.5155 132.037C67.0395 132.312 66.2674 132.313 65.7906 132.04L46.4303 120.944C45.9531 120.67 45.9523 120.226 46.4283 119.952Z" fill="#263238"/>
<path d="M101.403 100.474L103.323 99.3655C103.404 99.3181 103.4 99.2389 103.312 99.1884L101.092 97.9064C101.004 97.8559 100.867 97.8531 100.785 97.9L98.8648 99.0089C98.7832 99.0558 98.788 99.135 98.8759 99.1856L101.096 100.468C101.184 100.518 101.321 100.521 101.403 100.474ZM97.6135 96.0689L95.6931 97.1773C95.6115 97.2246 95.6167 97.3038 95.7043 97.3544L97.9247 98.6364C98.0123 98.6869 98.1496 98.6897 98.2312 98.6427L100.151 97.5339C100.233 97.4869 100.228 97.4077 100.14 97.3572L97.9199 96.0752C97.8324 96.0247 97.6951 96.0219 97.6135 96.0689ZM91.4099 99.6509L88.1602 101.527C88.0786 101.574 88.0834 101.653 88.1709 101.704L90.3914 102.986C90.4789 103.036 90.6162 103.039 90.6978 102.992L93.9475 101.116C94.0291 101.069 94.0243 100.99 93.9368 100.939L91.7167 99.6572C91.6288 99.6063 91.4914 99.6035 91.4099 99.6509ZM94.8072 97.6891L92.8868 98.7979C92.8056 98.8449 92.81 98.9241 92.898 98.9746L95.1184 100.257C95.206 100.307 95.3429 100.31 95.4245 100.263L97.3448 99.1545C97.4264 99.1072 97.4216 99.0284 97.3341 98.9778L95.1136 97.6959C95.0261 97.6449 94.8888 97.6421 94.8072 97.6891ZM87.2742 102.038L85.3543 103.147C85.2727 103.194 85.2775 103.273 85.365 103.324L87.5855 104.606C87.673 104.656 87.8099 104.659 87.8915 104.612L89.8119 103.503C89.8935 103.456 89.8887 103.377 89.8007 103.326L87.5807 102.044C87.4927 101.994 87.3554 101.991 87.2742 102.038ZM84.4675 103.659L82.5476 104.767C82.466 104.814 82.4708 104.893 82.5583 104.944L84.7788 106.226C84.8663 106.276 85.0036 106.279 85.0852 106.232L87.0056 105.124C87.0872 105.076 87.0824 104.998 86.9948 104.947L84.774 103.665C84.6864 103.615 84.5495 103.612 84.4675 103.659ZM93.2013 108.872L95.1216 107.763C95.2028 107.716 95.1984 107.637 95.1105 107.586L92.89 106.304C92.8025 106.254 92.6651 106.251 92.5836 106.298L90.6632 107.406C90.5816 107.454 90.5864 107.532 90.674 107.583L92.8944 108.865C92.9824 108.916 93.1197 108.919 93.2013 108.872ZM90.395 110.492L92.3149 109.384C92.3965 109.336 92.3917 109.257 92.3038 109.206L90.0837 107.925C89.9962 107.874 89.8588 107.872 89.7773 107.919L87.8573 109.027C87.7757 109.074 87.7805 109.154 87.8681 109.204L90.0885 110.486C90.1764 110.536 90.3134 110.539 90.395 110.492ZM87.5887 112.112L89.509 111.003C89.5906 110.956 89.5858 110.877 89.4983 110.827L87.2778 109.545C87.1903 109.494 87.0529 109.491 86.9714 109.538L85.0514 110.647C84.9698 110.694 84.9746 110.773 85.0626 110.824L87.2826 112.105C87.3698 112.156 87.5071 112.159 87.5887 112.112ZM84.782 113.732L86.7023 112.624C86.7839 112.577 86.7791 112.498 86.6912 112.447L84.4711 111.165C84.3836 111.115 84.2462 111.112 84.1647 111.159L82.2447 112.267C82.1631 112.314 82.1679 112.394 82.2555 112.444L84.4759 113.726C84.5635 113.777 84.7004 113.78 84.782 113.732ZM98.5965 102.094L100.516 100.985C100.598 100.938 100.593 100.859 100.506 100.809L98.2853 99.5267C98.1977 99.4761 98.0608 99.4733 97.9792 99.5203L96.0589 100.629C95.9773 100.676 95.9821 100.755 96.0696 100.806L98.2901 102.088C98.3776 102.139 98.5149 102.141 98.5965 102.094ZM96.0079 107.251L100.291 104.778C100.373 104.731 100.368 104.652 100.28 104.602L94.888 101.488C94.8004 101.438 94.6631 101.435 94.5815 101.482L92.3658 102.761C92.2843 102.809 92.289 102.887 92.3766 102.938L95.2314 104.586C95.319 104.637 95.3238 104.716 95.2422 104.763L93.4699 105.786C93.3883 105.833 93.3931 105.913 93.4806 105.963L95.7011 107.245C95.789 107.296 95.9264 107.298 96.0079 107.251ZM81.6612 105.279L79.7409 106.388C79.6593 106.435 79.6641 106.514 79.752 106.565L81.9725 107.846C82.06 107.897 82.197 107.9 82.2789 107.853L84.1993 106.744C84.2809 106.697 84.2761 106.618 84.1881 106.567L81.9681 105.285C81.8801 105.235 81.7428 105.232 81.6612 105.279ZM78.8549 106.899L76.9346 108.008C76.853 108.055 76.8578 108.134 76.9453 108.185L79.1654 109.467C79.2529 109.517 79.3903 109.52 79.4718 109.473L81.3918 108.364C81.4734 108.317 81.4686 108.238 81.3811 108.188L79.1606 106.906C79.0734 106.855 78.9365 106.852 78.8549 106.899ZM64.831 125.068C64.9186 125.119 65.0555 125.122 65.1375 125.075L67.0578 123.966C67.1394 123.919 67.1346 123.839 67.0471 123.789L64.8266 122.507C64.7391 122.456 64.6018 122.453 64.5202 122.5L62.6002 123.609C62.5186 123.656 62.5234 123.735 62.611 123.786L64.831 125.068ZM56.4034 119.862L54.483 120.97C54.4014 121.017 54.4062 121.096 54.4938 121.147L56.7142 122.429C56.8018 122.479 56.9391 122.483 57.0207 122.435L58.941 121.327C59.0226 121.28 59.0178 121.201 58.9299 121.15L56.7094 119.868C56.6223 119.818 56.4854 119.814 56.4034 119.862ZM60.9203 123.663C61.0078 123.714 61.1451 123.717 61.2267 123.67L63.1471 122.561C63.2287 122.514 63.2235 122.435 63.1359 122.384L60.9159 121.102C60.8283 121.052 60.6914 121.049 60.6094 121.096L58.6895 122.204C58.6079 122.252 58.6127 122.33 58.7002 122.381L60.9203 123.663ZM69.7861 126.053L71.7065 124.945C71.7881 124.897 71.7833 124.818 71.6957 124.768L69.4753 123.486C69.3877 123.435 69.2504 123.433 69.1688 123.48L67.2489 124.588C67.1677 124.635 67.1721 124.715 67.26 124.765L69.4805 126.047C69.5676 126.097 69.7045 126.1 69.7861 126.053ZM66.6734 127.667C66.7609 127.717 66.8982 127.72 66.9794 127.673L68.8998 126.564C68.9814 126.517 68.9766 126.438 68.889 126.388L66.6686 125.106C66.581 125.055 66.4441 125.052 66.3621 125.099L64.4418 126.208C64.3602 126.255 64.365 126.334 64.4529 126.385L66.6734 127.667ZM59.2101 118.241L57.2897 119.35C57.2081 119.397 57.2129 119.476 57.3009 119.527L59.5209 120.809C59.6085 120.859 59.7458 120.862 59.8274 120.815L61.7473 119.706C61.8289 119.659 61.8241 119.58 61.7366 119.529L59.5161 118.247C59.4286 118.197 59.2917 118.194 59.2101 118.241ZM73.2419 110.14L71.3216 111.248C71.2404 111.296 71.2448 111.374 71.3327 111.425L73.5532 112.707C73.6407 112.757 73.7777 112.76 73.8596 112.713L75.78 111.604C75.8616 111.557 75.8568 111.478 75.7692 111.428L73.5488 110.146C73.4605 110.096 73.3235 110.093 73.2419 110.14ZM62.0164 116.621L60.096 117.73C60.0144 117.777 60.0192 117.856 60.1068 117.906L62.3272 119.188C62.4148 119.239 62.5521 119.242 62.6337 119.195L64.5536 118.086C64.6352 118.039 64.6304 117.96 64.5425 117.91L62.3224 116.628C62.2353 116.577 62.098 116.574 62.0164 116.621ZM76.0482 108.519L74.1283 109.628C74.0467 109.675 74.0515 109.754 74.1394 109.805L76.3599 111.087C76.4474 111.138 76.5844 111.141 76.6663 111.093L78.5867 109.985C78.6683 109.938 78.6635 109.859 78.5759 109.808L76.3555 108.526C76.2671 108.475 76.1298 108.473 76.0482 108.519ZM70.4357 111.76L68.5153 112.869C68.4337 112.916 68.4385 112.995 68.526 113.046L70.7465 114.327C70.8341 114.378 70.9714 114.381 71.0529 114.333L72.9729 113.225C73.0545 113.178 73.0497 113.099 72.9622 113.048L70.7417 111.766C70.6546 111.716 70.5172 111.713 70.4357 111.76ZM67.6294 113.38L65.7094 114.489C65.6278 114.536 65.6326 114.615 65.7201 114.666L67.9406 115.948C68.0282 115.998 68.1655 116.001 68.2471 115.954L70.1674 114.846C70.2486 114.798 70.2438 114.719 70.1563 114.669L67.9362 113.387C67.8479 113.336 67.7105 113.333 67.6294 113.38ZM64.8231 115.001L62.9027 116.109C62.8211 116.157 62.8259 116.236 62.9135 116.286L65.1339 117.568C65.2215 117.619 65.3588 117.622 65.4404 117.575L67.3607 116.466C67.4423 116.419 67.4375 116.339 67.3496 116.289L65.1291 115.007C65.0416 114.956 64.9046 114.954 64.8231 115.001ZM79.1694 116.973L81.0897 115.864C81.1713 115.817 81.1665 115.738 81.079 115.687L78.8585 114.406C78.771 114.355 78.6337 114.352 78.5521 114.399L76.6317 115.508C76.5501 115.555 76.5549 115.634 76.6429 115.685L78.8633 116.967C78.9505 117.018 79.0878 117.02 79.1694 116.973ZM103.817 92.4873L101.897 93.5961C101.816 93.643 101.821 93.7222 101.908 93.7728L104.128 95.0547C104.216 95.1053 104.353 95.1081 104.435 95.0611L106.355 93.9527C106.437 93.9053 106.432 93.8265 106.344 93.7756L104.124 92.4936C104.036 92.4431 103.899 92.4403 103.817 92.4873ZM100.42 94.4486L98.4994 95.5574C98.4178 95.6044 98.4226 95.6836 98.5102 95.7341L100.731 97.0161C100.818 97.0666 100.955 97.0694 101.037 97.0225L102.957 95.914C103.039 95.8667 103.034 95.7875 102.947 95.7369L100.726 94.455C100.639 94.4044 100.501 94.4016 100.42 94.4486ZM106.623 90.867L104.703 91.9754C104.622 92.0224 104.627 92.1016 104.714 92.1525L106.935 93.4345C107.022 93.485 107.16 93.4878 107.241 93.4409L109.161 92.3324C109.243 92.2851 109.238 92.2059 109.15 92.1553L106.93 90.8734C106.842 90.8228 106.705 90.82 106.623 90.867ZM92.0972 105.847L94.0175 104.738C94.0991 104.691 94.0944 104.612 94.0064 104.561L91.7864 103.279C91.6988 103.228 91.5615 103.226 91.4799 103.273L89.5595 104.381C89.478 104.428 89.4827 104.508 89.5703 104.558L91.7907 105.84C91.8787 105.891 92.0156 105.893 92.0972 105.847ZM109.736 89.2531C109.649 89.2026 109.511 89.1998 109.43 89.2467L107.51 90.3552C107.428 90.4025 107.433 90.4813 107.52 90.5319L109.741 91.8138C109.828 91.8644 109.966 91.8672 110.047 91.8202L111.967 90.7114C112.049 90.6644 112.044 90.5852 111.957 90.5347L109.736 89.2531ZM81.9757 115.353L83.8956 114.244C83.9772 114.197 83.9724 114.118 83.8845 114.068L81.664 112.786C81.5765 112.735 81.4396 112.732 81.3576 112.779L79.4372 113.888C79.3556 113.935 79.3604 114.014 79.448 114.065L81.668 115.347C81.7568 115.397 81.8941 115.4 81.9757 115.353ZM116.391 95.483L118.311 94.3746C118.393 94.3276 118.388 94.248 118.301 94.1975L116.08 92.9159C115.993 92.8653 115.855 92.8626 115.774 92.9095L113.854 94.018C113.772 94.0649 113.777 94.1441 113.865 94.1951L116.085 95.477C116.173 95.5272 116.31 95.53 116.391 95.483ZM110.413 95.2721L112.333 94.1632C112.415 94.1163 112.41 94.0371 112.322 93.9865L110.102 92.7046C110.014 92.654 109.877 92.6512 109.796 92.6982L107.876 93.8066C107.794 93.854 107.799 93.9328 107.886 93.9837L110.107 95.2657C110.194 95.3162 110.332 95.319 110.413 95.2721ZM112.908 91.0843C112.821 91.0338 112.683 91.031 112.602 91.0779L110.681 92.1868C110.6 92.2337 110.605 92.3129 110.693 92.3635L112.913 93.6454C113.001 93.696 113.138 93.6988 113.219 93.6518L115.139 92.5434C115.221 92.496 115.216 92.4172 115.129 92.3667L112.908 91.0843ZM113.499 90.7432L118.891 93.8564C118.979 93.9069 119.116 93.9097 119.198 93.8627L121.118 92.7543C121.199 92.7069 121.195 92.6281 121.107 92.5772L115.715 89.464C115.627 89.4135 115.49 89.4107 115.408 89.4577L113.488 90.5661C113.407 90.6135 113.411 90.6927 113.499 90.7432ZM106.989 94.3188L105.069 95.4273C104.988 95.4742 104.992 95.5534 105.08 95.604L107.3 96.8855C107.388 96.9361 107.525 96.9393 107.607 96.8919L109.527 95.7835C109.608 95.7361 109.604 95.6573 109.516 95.6064L107.296 94.3244C107.208 94.2743 107.071 94.2715 106.989 94.3188ZM85.8673 106.513L83.947 107.622C83.8654 107.669 83.8701 107.748 83.9577 107.799L86.1781 109.081C86.2657 109.131 86.403 109.134 86.4846 109.087L88.405 107.979C88.4865 107.931 88.4814 107.852 88.3938 107.802L86.1738 106.52C86.0858 106.469 85.9489 106.466 85.8673 106.513ZM113.279 97.0969C113.366 97.1474 113.504 97.1502 113.585 97.1033L115.506 95.9948C115.587 95.9475 115.582 95.8687 115.494 95.8181L113.274 94.5362C113.186 94.4856 113.049 94.4828 112.968 94.5298L111.048 95.6386C110.966 95.6856 110.971 95.7648 111.058 95.8153L113.279 97.0969ZM88.6736 104.893L86.7533 106.002C86.6717 106.049 86.6768 106.128 86.7644 106.178L88.9844 107.46C89.072 107.511 89.2089 107.514 89.2909 107.467L91.2112 106.358C91.2928 106.311 91.2881 106.232 91.2005 106.181L88.9801 104.899C88.8921 104.849 88.7552 104.846 88.6736 104.893ZM67.6373 123.448C67.7249 123.499 67.8622 123.501 67.9438 123.454L69.8641 122.346C69.9453 122.299 69.9409 122.22 69.853 122.169L67.6325 120.887C67.545 120.837 67.4081 120.834 67.3265 120.881L65.4061 121.99C65.3245 122.037 65.3293 122.116 65.4169 122.167L67.6373 123.448ZM63.4157 119.476L61.4954 120.584C61.4138 120.631 61.4186 120.711 61.5065 120.761L63.727 122.043C63.8145 122.094 63.9518 122.096 64.0334 122.05L65.9538 120.941C66.0354 120.894 66.0306 120.815 65.943 120.764L63.7226 119.482C63.6346 119.431 63.4973 119.429 63.4157 119.476ZM70.7501 121.834L72.6704 120.725C72.752 120.678 72.7472 120.599 72.6597 120.549L70.4392 119.267C70.3517 119.217 70.2144 119.213 70.1328 119.261L68.2124 120.369C68.1312 120.416 68.1356 120.495 68.2236 120.546L70.444 121.828C70.5312 121.878 70.6685 121.881 70.7501 121.834ZM73.5564 120.214L75.4767 119.105C75.5583 119.058 75.5535 118.979 75.466 118.929L73.2455 117.647C73.1584 117.596 73.0211 117.593 72.9391 117.64L71.0191 118.749C70.9375 118.796 70.9423 118.875 71.0303 118.926L73.2507 120.208C73.3375 120.258 73.4748 120.261 73.5564 120.214ZM76.3627 118.593L78.283 117.485C78.3646 117.437 78.3598 117.359 78.2723 117.308L76.0518 116.026C75.9643 115.975 75.8274 115.972 75.7454 116.02L73.8254 117.128C73.7438 117.175 73.7486 117.255 73.8362 117.305L76.0562 118.587C76.1442 118.638 76.2811 118.641 76.3627 118.593ZM66.222 117.855L64.3021 118.964C64.2205 119.011 64.2253 119.09 64.3128 119.141L66.5333 120.422C66.6208 120.473 66.7577 120.476 66.8397 120.429L68.7601 119.32C68.8417 119.273 68.8369 119.194 68.7493 119.143L66.5289 117.861C66.4409 117.811 66.304 117.808 66.222 117.855ZM69.0287 116.235L67.1084 117.344C67.0268 117.391 67.0316 117.47 67.1191 117.52L69.3396 118.802C69.4271 118.853 69.5644 118.856 69.646 118.809L71.5664 117.7C71.6476 117.653 71.6432 117.574 71.5552 117.523L69.3348 116.241C69.2472 116.191 69.1103 116.188 69.0287 116.235ZM80.2543 109.754L78.334 110.863C78.2524 110.91 78.2571 110.989 78.3451 111.04L80.5655 112.321C80.6531 112.372 80.79 112.375 80.872 112.328L82.792 111.219C82.8735 111.172 82.8688 111.093 82.7812 111.042L80.5608 109.76C80.4728 109.71 80.3359 109.707 80.2543 109.754ZM77.448 111.374L75.5277 112.483C75.4461 112.53 75.4508 112.61 75.5384 112.66L77.7585 113.942C77.846 113.992 77.9833 113.995 78.0649 113.948L79.9853 112.84C80.0669 112.792 80.0621 112.714 79.9745 112.663L77.7541 111.381C77.6665 111.33 77.5296 111.327 77.448 111.374ZM83.0606 108.133L81.1403 109.242C81.0587 109.289 81.0634 109.368 81.151 109.419L83.371 110.701C83.4586 110.751 83.5959 110.754 83.6775 110.707L85.5979 109.598C85.6795 109.551 85.6747 109.472 85.5867 109.421L83.3663 108.139C83.2795 108.089 83.1422 108.086 83.0606 108.133ZM71.835 114.615L69.9147 115.724C69.8331 115.771 69.8379 115.85 69.9254 115.9L72.1459 117.182C72.2334 117.233 72.3703 117.236 72.4523 117.189L74.3727 116.08C74.4543 116.033 74.4495 115.954 74.3619 115.904L72.1415 114.622C72.0539 114.571 71.9166 114.567 71.835 114.615ZM74.6413 112.995L72.721 114.103C72.6394 114.15 72.6442 114.229 72.7321 114.28L74.9526 115.562C75.0401 115.612 75.177 115.615 75.2586 115.568L77.1786 114.459C77.2602 114.412 77.2554 114.333 77.1678 114.283L74.9474 113.001C74.8602 112.95 74.7229 112.948 74.6413 112.995ZM72.5924 124.433L74.5124 123.324C74.594 123.277 74.5892 123.198 74.5016 123.147L72.2812 121.865C72.1936 121.815 72.0567 121.812 71.9747 121.859L70.0548 122.967C69.9732 123.015 69.978 123.094 70.0655 123.144L72.2856 124.426C72.3739 124.477 72.5108 124.48 72.5924 124.433ZM56.124 122.77L53.9035 121.488C53.816 121.437 53.6791 121.435 53.5971 121.482L51.6771 122.59C51.5955 122.637 51.6003 122.717 51.6879 122.767L53.9083 124.049C53.9959 124.1 54.1332 124.102 54.2148 124.055L56.1347 122.947C56.2163 122.9 56.2111 122.821 56.124 122.77ZM60.3296 124.004L58.1092 122.723C58.0216 122.672 57.8847 122.669 57.8027 122.716L54.8488 124.422C54.7672 124.469 54.772 124.548 54.8599 124.598L57.0804 125.88C57.1679 125.93 57.3048 125.934 57.3868 125.886L60.3408 124.181C60.422 124.134 60.4172 124.055 60.3296 124.004ZM52.7171 120.292L50.497 119.01C50.4095 118.959 50.2726 118.956 50.1906 119.003L47.8273 120.368C47.7457 120.415 47.7504 120.494 47.8384 120.544L50.0585 121.826C50.146 121.877 50.2833 121.88 50.3649 121.833L52.7282 120.468C52.8098 120.422 52.8047 120.342 52.7171 120.292ZM54.5292 119.246C54.6167 119.296 54.7537 119.299 54.8352 119.252L56.7552 118.143C56.8368 118.096 56.832 118.017 56.7445 117.966L54.524 116.684C54.4364 116.634 54.2991 116.631 54.2176 116.678L52.2976 117.787C52.216 117.834 52.2208 117.913 52.3083 117.963L54.5292 119.246ZM64.24 125.409L62.0195 124.127C61.932 124.077 61.7947 124.074 61.7131 124.121L58.0204 126.253C57.9388 126.301 57.9436 126.379 58.0316 126.43L60.2516 127.712C60.3392 127.762 60.4761 127.765 60.5581 127.718L64.2507 125.586C64.3327 125.539 64.3275 125.46 64.24 125.409ZM66.0827 128.008L63.8623 126.726C63.7751 126.676 63.6378 126.673 63.5562 126.72L61.1929 128.084C61.1113 128.131 61.1161 128.211 61.2036 128.261L63.4241 129.543C63.5116 129.594 63.649 129.596 63.7305 129.549L66.0939 128.185C66.1751 128.138 66.1699 128.058 66.0827 128.008ZM75.3951 107.199C75.4827 107.249 75.6196 107.252 75.7012 107.205L77.6211 106.096C77.7027 106.049 77.698 105.97 77.6104 105.919L75.39 104.637C75.3024 104.587 75.1651 104.584 75.0835 104.631L73.1635 105.739C73.082 105.787 73.0867 105.866 73.1743 105.916L75.3951 107.199ZM69.7821 110.439C69.8697 110.49 70.007 110.493 70.0886 110.446L72.0089 109.337C72.0905 109.29 72.0858 109.211 71.9978 109.16L69.7774 107.878C69.6898 107.828 69.5529 107.825 69.4709 107.872L67.5506 108.98C67.469 109.028 67.4737 109.107 67.5613 109.157L69.7821 110.439ZM57.3355 117.625C57.423 117.676 57.5604 117.679 57.6419 117.632L59.5623 116.523C59.6439 116.476 59.6391 116.397 59.5515 116.347L57.3311 115.065C57.2435 115.014 57.1066 115.011 57.0246 115.058L55.1043 116.167C55.0227 116.214 55.0275 116.293 55.115 116.343L57.3355 117.625ZM72.5884 108.819C72.676 108.869 72.8133 108.873 72.8949 108.825L74.8152 107.717C74.8968 107.67 74.8917 107.591 74.8041 107.54L72.5841 106.258C72.4965 106.208 72.3596 106.205 72.2776 106.252L70.3576 107.36C70.2761 107.407 70.2808 107.486 70.3684 107.537L72.5884 108.819ZM66.9758 112.06C67.0634 112.11 67.2007 112.113 67.2823 112.066L69.2022 110.957C69.2838 110.91 69.2791 110.831 69.1915 110.78L66.9715 109.498C66.8839 109.448 66.7466 109.445 66.665 109.492L64.7447 110.6C64.6631 110.648 64.6678 110.726 64.7558 110.777L66.9758 112.06ZM67.625 128.217C67.5374 128.166 67.4001 128.163 67.3185 128.21L64.3646 129.916C64.283 129.963 64.2877 130.042 64.3753 130.092L66.5957 131.374C66.6833 131.425 66.8202 131.428 66.9022 131.381L69.8562 129.675C69.9378 129.628 69.933 129.549 69.845 129.498L67.625 128.217ZM62.9485 114.385C63.036 114.435 63.173 114.438 63.2549 114.391L65.1753 113.283C65.2569 113.235 65.2521 113.157 65.1645 113.106L62.9441 111.824C62.8565 111.773 62.7192 111.77 62.6376 111.817L60.7173 112.926C60.6357 112.973 60.6405 113.052 60.728 113.103L62.9485 114.385ZM60.1418 116.005C60.2293 116.056 60.3667 116.058 60.4482 116.011L62.3682 114.903C62.4498 114.856 62.445 114.776 62.3574 114.726L60.137 113.444C60.0494 113.393 59.9121 113.391 59.8305 113.438L57.9102 114.546C57.8286 114.593 57.8334 114.672 57.9213 114.723L60.1418 116.005ZM119.618 98.1985C119.53 98.148 119.393 98.1452 119.311 98.1922L114.585 100.921C114.503 100.968 114.508 101.047 114.596 101.098L116.816 102.38C116.904 102.431 117.041 102.434 117.123 102.387L121.849 99.6576C121.931 99.6107 121.926 99.5315 121.839 99.4809L119.618 98.1985ZM113.414 101.78C113.327 101.73 113.19 101.727 113.108 101.774L111.187 102.882C111.106 102.93 111.111 103.008 111.198 103.059L113.418 104.341C113.506 104.392 113.643 104.395 113.725 104.347L115.645 103.239C115.726 103.192 115.722 103.113 115.634 103.062L113.414 101.78ZM75.3991 122.812L77.3195 121.704C77.4011 121.657 77.3963 121.578 77.3083 121.527L75.0879 120.245C75.0003 120.194 74.8634 120.192 74.7814 120.239L72.8615 121.347C72.7799 121.394 72.7846 121.474 72.8722 121.524L75.0926 122.806C75.1802 122.857 75.3175 122.859 75.3991 122.812ZM107.801 105.021C107.714 104.97 107.576 104.967 107.495 105.014L105.574 106.123C105.493 106.17 105.497 106.249 105.585 106.3L107.806 107.582C107.893 107.632 108.031 107.635 108.112 107.588L110.033 106.479C110.114 106.432 110.109 106.353 110.022 106.303L107.801 105.021ZM122.424 96.5783C122.336 96.5277 122.199 96.525 122.118 96.5719L120.197 97.6808C120.116 97.7277 120.12 97.8069 120.208 97.8575L122.429 99.1394C122.516 99.19 122.654 99.1928 122.735 99.1458L124.656 98.0374C124.737 97.99 124.732 97.9112 124.645 97.8606L122.424 96.5783ZM127.451 96.24L122.058 93.1264C121.971 93.0759 121.833 93.0731 121.752 93.1201L119.831 94.2289C119.75 94.2759 119.755 94.3551 119.843 94.4056L125.235 97.5192C125.322 97.5697 125.46 97.5725 125.541 97.5255L127.461 96.4167C127.543 96.3697 127.538 96.2905 127.451 96.24ZM97.3138 111.075C97.2262 111.025 97.0889 111.022 97.0077 111.069L94.6444 112.433C94.5628 112.48 94.5676 112.56 94.6551 112.611L96.8756 113.892C96.9631 113.943 97.1005 113.946 97.182 113.899L99.5454 112.535C99.627 112.488 99.6222 112.408 99.5346 112.358L97.3138 111.075ZM104.404 106.982C104.316 106.931 104.179 106.929 104.097 106.976L101.143 108.681C101.061 108.728 101.067 108.808 101.154 108.858L103.374 110.14C103.462 110.191 103.599 110.193 103.681 110.147L106.635 108.441C106.716 108.394 106.711 108.315 106.624 108.264L104.404 106.982ZM90.8148 114.828C90.7273 114.777 90.59 114.774 90.5084 114.821L74.7038 123.946C74.6222 123.993 74.627 124.073 74.7146 124.123L76.935 125.405C77.0226 125.456 77.1595 125.459 77.2415 125.411L93.046 116.287C93.1276 116.239 93.1228 116.16 93.0353 116.11L90.8148 114.828ZM74.1243 124.464C74.0368 124.414 73.8994 124.411 73.8179 124.458L71.4545 125.822C71.3729 125.869 71.3777 125.948 71.4657 125.999L73.6861 127.281C73.7737 127.332 73.911 127.335 73.9926 127.287L76.3559 125.923C76.4371 125.876 76.4327 125.797 76.3448 125.746L74.1243 124.464ZM94.0645 112.952C93.977 112.901 93.84 112.898 93.7581 112.945L91.3947 114.31C91.3131 114.357 91.3179 114.436 91.4055 114.487L93.6259 115.768C93.7135 115.819 93.8508 115.822 93.9324 115.775L96.2957 114.41C96.3773 114.363 96.3725 114.284 96.2846 114.233L94.0645 112.952ZM70.8746 126.34C70.7871 126.29 70.6502 126.287 70.5682 126.334L68.2049 127.698C68.1233 127.746 68.1284 127.824 68.216 127.875L70.4361 129.157C70.5236 129.208 70.6605 129.21 70.7425 129.163L73.1058 127.799C73.1874 127.752 73.1826 127.673 73.0951 127.622L70.8746 126.34ZM100.563 109.2C100.476 109.149 100.339 109.146 100.257 109.193L97.8937 110.558C97.8125 110.605 97.8169 110.684 97.9048 110.734L100.125 112.016C100.213 112.067 100.35 112.07 100.431 112.023L102.795 110.658C102.876 110.611 102.871 110.532 102.783 110.482L100.563 109.2ZM110.607 103.4C110.52 103.35 110.383 103.347 110.301 103.394L108.381 104.503C108.299 104.55 108.304 104.629 108.392 104.68L110.612 105.962C110.7 106.012 110.837 106.015 110.919 105.968L112.839 104.859C112.921 104.812 112.915 104.733 112.828 104.682L110.607 103.4ZM116.756 98.9344L118.676 97.826C118.758 97.7787 118.753 97.6995 118.666 97.6489L116.445 96.367C116.358 96.3164 116.22 96.3136 116.139 96.3606L114.218 97.469C114.137 97.516 114.142 97.5952 114.23 97.6461L116.45 98.9281C116.538 98.979 116.675 98.9818 116.756 98.9344ZM104.209 98.8537L106.129 97.7452C106.211 97.6983 106.206 97.6191 106.118 97.5681L103.898 96.2866C103.81 96.236 103.673 96.2328 103.591 96.2802L101.671 97.3886C101.589 97.436 101.594 97.5148 101.682 97.5653L103.902 98.8469C103.991 98.8978 104.128 98.901 104.209 98.8537ZM97.8503 109.85L103.463 106.609C103.545 106.563 103.54 106.483 103.452 106.433L101.232 105.151C101.144 105.1 101.007 105.097 100.925 105.144L95.3122 108.385C95.2306 108.432 95.2354 108.511 95.323 108.562L97.543 109.843C97.6318 109.895 97.7687 109.897 97.8503 109.85ZM113.644 100.549C113.732 100.599 113.869 100.602 113.95 100.555L115.871 99.4467C115.952 99.3993 115.947 99.3205 115.86 99.2696L113.639 97.9876C113.552 97.9371 113.414 97.9343 113.333 97.9812L111.413 99.0901C111.331 99.137 111.337 99.2162 111.424 99.2668L113.644 100.549ZM110.779 98.7235L112.699 97.6147C112.78 97.5677 112.776 97.4885 112.688 97.438L110.468 96.156C110.38 96.1055 110.243 96.1027 110.161 96.1496L108.241 97.2581C108.159 97.3054 108.164 97.3842 108.252 97.4348L110.472 98.7167C110.56 98.7681 110.697 98.7705 110.779 98.7235ZM95.044 111.471L96.9643 110.362C97.0459 110.315 97.0412 110.236 96.9536 110.185L94.7331 108.903C94.6456 108.853 94.5083 108.85 94.4267 108.897L92.5063 110.006C92.4247 110.053 92.4295 110.132 92.5175 110.182L94.7379 111.464C94.8251 111.515 94.9624 111.518 95.044 111.471ZM107.44 104.13C107.528 104.181 107.665 104.184 107.747 104.137L109.667 103.028C109.748 102.981 109.743 102.902 109.656 102.851L107.435 101.569C107.348 101.519 107.21 101.516 107.129 101.563L105.209 102.671C105.127 102.719 105.132 102.797 105.219 102.848L107.44 104.13ZM81.0121 119.572L82.9321 118.463C83.0136 118.416 83.0089 118.337 82.9213 118.286L80.7009 117.004C80.6133 116.954 80.4764 116.951 80.3944 116.998L78.4745 118.107C78.3929 118.154 78.3976 118.233 78.4852 118.284L80.7056 119.566C80.7932 119.616 80.9301 119.619 81.0121 119.572ZM83.8184 117.952L85.7387 116.843C85.8203 116.796 85.8156 116.717 85.7276 116.667L83.5072 115.385C83.4196 115.334 83.2827 115.331 83.2011 115.379L81.2808 116.487C81.1992 116.534 81.2039 116.613 81.2915 116.664L83.5119 117.946C83.5995 117.996 83.7368 117.999 83.8184 117.952ZM78.2054 121.192L80.1258 120.084C80.2073 120.037 80.2026 119.958 80.115 119.907L77.8946 118.625C77.807 118.575 77.6697 118.571 77.5881 118.619L75.6682 119.727C75.5866 119.774 75.5913 119.853 75.6789 119.904L77.8993 121.186C77.9869 121.236 78.1238 121.239 78.2054 121.192ZM89.431 114.711L91.3513 113.603C91.4329 113.555 91.4282 113.476 91.3406 113.426L89.1202 112.144C89.0326 112.093 88.8953 112.09 88.8137 112.137L86.8933 113.246C86.8118 113.293 86.8165 113.372 86.9041 113.423L89.1245 114.705C89.2125 114.755 89.3494 114.758 89.431 114.711ZM86.6247 116.331L88.5446 115.223C88.6262 115.176 88.6215 115.096 88.5339 115.046L86.3135 113.764C86.2259 113.713 86.0886 113.711 86.007 113.758L84.0866 114.866C84.0051 114.913 84.0098 114.993 84.0978 115.043L86.3182 116.325C86.4058 116.376 86.5431 116.378 86.6247 116.331ZM92.2373 113.091L94.1576 111.982C94.2392 111.935 94.2345 111.856 94.1469 111.805L91.9265 110.523C91.8389 110.473 91.7016 110.47 91.62 110.517L89.6996 111.625C89.6181 111.672 89.6232 111.752 89.7108 111.802L91.9308 113.084C92.0188 113.135 92.1557 113.138 92.2373 113.091ZM105.077 89.1214C105.164 89.1719 105.302 89.1747 105.383 89.1277L107.304 88.0189C107.385 87.9719 107.38 87.8927 107.293 87.8422L106.702 87.5007C106.614 87.4502 106.477 87.4474 106.395 87.4943L104.475 88.6032C104.394 88.6501 104.399 88.7293 104.487 88.7799L105.077 89.1214ZM91.2686 98.0338C91.3557 98.0843 91.493 98.0875 91.575 98.0401L93.4954 96.9317C93.577 96.8848 93.5722 96.8055 93.4846 96.755L91.2646 95.473C91.177 95.4221 91.0397 95.4193 90.9581 95.4667L89.0382 96.5755C88.9566 96.6225 88.9614 96.7017 89.0489 96.7522L91.2686 98.0338ZM96.8816 94.7933C96.9691 94.8438 97.106 94.8466 97.1876 94.7996L99.108 93.6912C99.1896 93.6438 99.1848 93.565 99.0972 93.5141L96.8768 92.2321C96.7892 92.1816 96.6519 92.1788 96.5703 92.2258L94.65 93.3346C94.5688 93.3816 94.5732 93.4612 94.6611 93.5113L96.8816 94.7933ZM87.8418 100.013C87.9293 100.063 88.0663 100.066 88.1482 100.019L90.0686 98.9106C90.1502 98.8636 90.1454 98.7844 90.0574 98.7339L87.837 97.4519C87.7494 97.4014 87.6121 97.3986 87.5305 97.4459L85.6102 98.5544C85.5286 98.6013 85.5334 98.6805 85.6209 98.7315L87.8418 100.013ZM94.0749 96.4139C94.1624 96.4645 94.2997 96.4672 94.3813 96.4203L96.3013 95.3115C96.3825 95.2645 96.3781 95.1853 96.2901 95.1347L94.0697 93.8528C93.9821 93.8022 93.8452 93.7995 93.7636 93.8464L91.8433 94.9549C91.7617 95.0022 91.7665 95.081 91.854 95.1316L94.0749 96.4139ZM82.2288 103.253C82.3163 103.304 82.4533 103.306 82.5352 103.259L84.4552 102.151C84.5368 102.104 84.532 102.025 84.4445 101.974L82.224 100.692C82.1365 100.641 81.9991 100.638 81.9176 100.685L79.9972 101.794C79.9156 101.841 79.9208 101.92 80.0083 101.971L82.2288 103.253ZM85.0351 101.633C85.1226 101.683 85.26 101.686 85.3415 101.639L87.2619 100.53C87.3435 100.483 87.3387 100.404 87.2508 100.354L85.0307 99.0718C84.9432 99.0212 84.8058 99.0184 84.7242 99.0654L82.8043 100.174C82.7227 100.221 82.7275 100.3 82.815 100.351L85.0351 101.633ZM99.4638 92.3619C99.5513 92.4124 99.6886 92.4152 99.7702 92.3682L101.691 91.2594C101.772 91.2125 101.767 91.1333 101.68 91.0827L101.089 90.7416C101.001 90.6911 100.864 90.6883 100.783 90.7353L98.8624 91.8441C98.7808 91.891 98.7856 91.9702 98.8731 92.0208L99.4638 92.3619ZM107.883 87.5007C107.971 87.5513 108.108 87.5544 108.19 87.5071L110.11 86.3986C110.191 86.3513 110.187 86.2725 110.099 86.2219L109.508 85.8804C109.42 85.8299 109.283 85.8271 109.201 85.8745L107.281 86.9829C107.199 87.0299 107.204 87.1095 107.292 87.16L107.883 87.5007ZM112.547 90.1936C112.635 90.2441 112.772 90.2469 112.854 90.1999L114.774 89.0915C114.856 89.0442 114.851 88.9654 114.763 88.9148L112.543 87.6328C112.455 87.5823 112.318 87.5795 112.236 87.6265L110.316 88.7353C110.234 88.7823 110.239 88.8615 110.327 88.912L112.547 90.1936ZM119.563 97.3142L121.484 96.2054C121.565 96.1584 121.56 96.0792 121.473 96.0287L119.252 94.7467C119.165 94.6962 119.027 94.6934 118.946 94.7403L117.026 95.8488C116.944 95.8961 116.949 95.9749 117.037 96.0255L119.257 97.3074C119.344 97.3588 119.482 97.3612 119.563 97.3142ZM102.27 90.7412C102.358 90.7918 102.495 90.795 102.577 90.7476L104.497 89.6392C104.579 89.5922 104.574 89.513 104.487 89.4624L103.896 89.1214C103.808 89.0708 103.671 89.068 103.589 89.115L101.669 90.2234C101.588 90.2708 101.592 90.3496 101.68 90.4001L102.27 90.7412ZM79.4225 104.873C79.5101 104.924 79.6474 104.927 79.729 104.88L81.6493 103.771C81.7309 103.724 81.7261 103.645 81.6386 103.595L79.4181 102.313C79.3306 102.262 79.1932 102.259 79.1117 102.306L77.1913 103.415C77.1101 103.462 77.1145 103.541 77.2024 103.592L79.4225 104.873Z" fill="#455A64"/>
<path d="M91.868 121.719L110.817 110.779C111.388 110.449 112.314 110.449 112.885 110.779L123.751 117.052C124.322 117.381 124.322 117.916 123.751 118.246L104.801 129.186C104.23 129.516 103.304 129.516 102.733 129.186L91.868 122.913C91.2968 122.583 91.2968 122.048 91.868 121.719Z" fill="#263238"/>
<path d="M126.714 69.1079C126.714 69.1039 126.718 69.1039 126.718 69.1039L126.695 69.088L123.46 67.2245C123.273 67.1409 122.998 67.2205 122.668 67.4713C119.657 69.7753 115.611 70.4893 112.303 69.437C112.092 69.24 111.889 69.0318 111.698 68.8094C111.678 68.7855 111.658 68.7616 111.638 68.7417H111.634C111.523 68.6183 111.411 68.5268 111.3 68.4671L111.244 68.4352L108.005 66.5758C107.635 66.4007 107.301 66.5758 107.078 67.125C103.95 74.898 97.2831 82.7744 92.8375 84.7445C92.5071 84.8917 92.2007 85.1186 91.9619 85.3972C91.6475 85.7594 91.4525 86.2051 91.4684 86.6708L92.1091 104.123C92.1091 109.166 94.2384 114.491 98.5806 117.082L101.931 119.017L101.991 119.049C103.654 120 105.632 120.557 107.929 120.557C108.395 120.557 108.868 120.537 109.358 120.49C110.178 120.41 111.316 119.817 111.889 119.224C121.604 109.19 126.328 95.6107 126.328 88.0964L126.969 69.8402C126.985 69.4462 126.89 69.2034 126.714 69.1079Z" fill="#A51C05" fill-opacity="0.66"/>
<path d="M126.969 69.8402L126.328 88.0965C126.328 95.6107 121.604 109.191 111.889 119.224C111.316 119.817 110.178 120.41 109.358 120.49C108.868 120.537 108.395 120.557 107.929 120.557C105.632 120.557 103.654 120 101.991 119.049L101.931 119.017L101.816 118.945C97.4734 116.354 95.3441 111.029 95.3441 105.987L94.7033 88.5343C94.6874 88.0686 94.8824 87.6229 95.1968 87.2607C95.4356 86.9821 95.7421 86.7552 96.0724 86.608C100.518 84.6379 107.185 76.7615 110.313 68.9885C110.536 68.4393 110.874 68.2602 111.244 68.4353L111.3 68.4671C111.411 68.5268 111.523 68.6184 111.634 68.7418H111.638C111.658 68.7617 111.678 68.7855 111.698 68.8094C115.017 72.674 121.544 72.67 125.903 69.3348C126.233 69.084 126.507 69.0044 126.695 69.088L126.718 69.1039C126.718 69.1039 126.714 69.1039 126.714 69.1079C126.89 69.2034 126.985 69.4462 126.969 69.8402Z" fill="#A51C05" fill-opacity="0.66"/>
<path opacity="0.4" d="M126.696 69.086C126.509 69.0024 126.234 69.082 125.904 69.3328C121.801 72.473 115.771 72.6601 112.312 69.4363C115.62 70.491 119.659 69.7746 122.668 67.4701C122.999 67.2194 123.273 67.1398 123.46 67.2234L126.696 69.086Z" fill="white"/>
<path opacity="0.4" d="M111.246 68.4333C110.876 68.2582 110.537 68.4373 110.314 68.9865C107.186 76.7595 100.52 84.6359 96.074 86.606C95.7437 86.7532 95.4372 86.9801 95.1984 87.2587C95.1148 87.3542 95.0392 87.4577 94.9755 87.5652L91.7438 85.6985C91.8075 85.5951 91.8791 85.4916 91.9627 85.3961C92.0065 85.3443 92.0542 85.2966 92.106 85.2488L92.1099 85.2448C92.1298 85.2289 92.1458 85.209 92.1657 85.1891C92.1856 85.1732 92.2015 85.1573 92.2214 85.1374C92.4045 84.9782 92.6154 84.8389 92.8383 84.7433C97.2839 82.7733 103.95 74.8968 107.079 67.1239C107.302 66.5746 107.636 66.3995 108.006 66.5746L111.246 68.4333Z" fill="white"/>
<path d="M92.11 85.242C92.1263 85.2217 92.1466 85.2054 92.167 85.1891C92.1466 85.2095 92.1303 85.2298 92.11 85.2461C92.11 85.2461 92.1055 85.242 92.11 85.242Z" fill="#A51C05" fill-opacity="0.66"/>
<path opacity="0.15" d="M92.167 85.1891C92.1466 85.2095 92.1303 85.2298 92.11 85.2461C92.11 85.2461 92.1059 85.242 92.11 85.242C92.1259 85.2217 92.1462 85.2054 92.167 85.1891Z" fill="black"/>
<path opacity="0.15" d="M101.992 119.047L101.933 119.019L98.5814 117.081C94.2392 114.49 92.1099 109.165 92.1099 104.122L91.4692 86.6697C91.4572 86.3274 91.5607 85.9931 91.7438 85.6986L94.9755 87.5652C94.7964 87.8597 94.693 88.19 94.7049 88.5323L95.3457 105.985C95.3457 111.027 97.475 116.353 101.817 118.943L101.933 119.015L101.992 119.047Z" fill="black"/>
<path d="M113.423 102.989L108.25 105.975L109.052 96.6185C108.433 96.2913 108.039 95.4866 108.039 94.3308C108.039 92.2703 109.292 89.8772 110.837 88.9848C112.382 88.0929 113.635 89.0398 113.635 91.1002C113.635 92.256 113.24 93.5161 112.622 94.5576L113.423 102.989Z" fill="#455A64"/>
<path d="M113.423 102.989L108.738 100.284L108.25 105.975L113.423 102.989Z" fill="#37474F"/>
<path d="M110.837 88.9848C109.826 89.5687 108.943 90.7957 108.451 92.1509L112.622 94.5588V94.5576C113.241 93.5161 113.635 92.256 113.635 91.1002C113.635 89.0398 112.382 88.0929 110.837 88.9848Z" fill="#37474F"/>
<path d="M46.1354 157.343V158.899C46.129 160.727 47.3333 162.556 49.7492 163.951C53.3873 166.051 58.7305 166.563 63.2048 165.492L67.3603 167.892L70.5531 167.17L72.7321 168.428L72.8511 171.061L74.0248 171.739L76.9732 171.998L79.0921 173.18V174.665L81.7512 176.2H88.5132L90.937 174.801V173.231L69.3101 162.315C70.3063 161.258 70.8058 160.087 70.8082 158.915V157.343C70.483 155.825 69.2182 155.042 67.1987 153.876C62.3801 151.094 54.5678 151.094 49.7492 153.876C47.5829 155.127 46.3539 155.708 46.1354 157.343ZM52.7593 155.526C54.1244 154.738 56.3373 154.738 57.7024 155.526C59.0676 156.314 59.0676 157.592 57.7024 158.38C56.3373 159.168 54.1244 159.168 52.7593 158.38C51.3941 157.592 51.3941 156.314 52.7593 155.526Z" fill="#A51C05" fill-opacity="0.87"/>
<path opacity="0.1" d="M46.1354 157.343V158.899C46.129 160.727 47.3333 162.556 49.7492 163.951C53.3873 166.051 58.7305 166.563 63.2048 165.492L67.3603 167.892L70.5531 167.17L72.7321 168.428L72.8511 171.061L74.0248 171.739L76.9732 171.998L79.0921 173.18V174.665L81.7512 176.2H88.5132L90.937 174.801V173.231L69.3101 162.315C70.3063 161.258 70.8058 160.087 70.8082 158.915V157.343C70.483 155.825 69.2182 155.042 67.1987 153.876C62.3801 151.094 54.5678 151.094 49.7492 153.876C47.5829 155.127 46.3539 155.708 46.1354 157.343ZM52.7593 155.526C54.1244 154.738 56.3373 154.738 57.7024 155.526C59.0676 156.314 59.0676 157.592 57.7024 158.38C56.3373 159.168 54.1244 159.168 52.7593 158.38C51.3941 157.592 51.3941 156.314 52.7593 155.526Z" fill="black"/>
<path d="M49.7492 162.381C53.3873 164.481 58.7305 164.993 63.2048 163.922L67.3603 166.321L70.5531 165.6L72.7321 166.858L72.8511 169.491L74.0248 170.169L76.9732 170.428L79.272 171.711L79.0922 173.095L81.7512 174.63H88.5132L90.937 173.231L69.3101 160.745C71.8573 158.043 71.158 154.592 67.1987 152.306C62.3801 149.524 54.5678 149.524 49.7492 152.306C44.9306 155.088 44.9306 159.599 49.7492 162.381ZM52.7593 153.956C54.1244 153.168 56.3373 153.168 57.7024 153.956C59.0676 154.744 59.0676 156.022 57.7024 156.81C56.3373 157.598 54.1244 157.598 52.7593 156.81C51.3941 156.022 51.3941 154.744 52.7593 153.956Z" fill="#A51C05" fill-opacity="0.87"/>
<path opacity="0.3" d="M58.4742 163.1C55.4151 163.1 52.5595 162.425 50.433 161.197C48.5703 160.121 47.5025 158.717 47.5025 157.343C47.5025 155.97 48.5707 154.565 50.433 153.49C52.5595 152.262 55.4155 151.587 58.4746 151.587C61.5336 151.587 64.3892 152.262 66.5158 153.49C68.378 154.566 69.4462 155.97 69.4462 157.344C69.4462 158.717 68.378 160.122 66.5162 161.197C64.3888 162.425 61.5332 163.1 58.4742 163.1ZM58.4742 152.134C55.5099 152.134 52.7509 152.783 50.706 153.964C49.0177 154.939 48.0489 156.17 48.0489 157.343C48.0489 158.516 49.0177 159.748 50.706 160.724C52.7505 161.904 55.5095 162.554 58.4738 162.554C61.4381 162.554 64.1966 161.904 66.2415 160.724C67.9298 159.748 68.8982 158.517 68.8982 157.344C68.8982 156.171 67.9298 154.939 66.2411 153.964C64.1974 152.783 61.4389 152.134 58.4742 152.134Z" fill="black"/>
<path opacity="0.1" d="M54.0333 163.988V165.558C56.9809 166.214 60.2787 166.192 63.2048 165.492V163.922C60.2791 164.622 56.9813 164.644 54.0333 163.988Z" fill="black"/>
<path opacity="0.1" d="M67.3603 166.321V167.892L70.5531 167.17V165.599L67.3603 166.321Z" fill="black"/>
<path opacity="0.1" d="M72.7321 166.858V168.428L72.8511 171.062V169.491L72.7321 166.858Z" fill="black"/>
<path opacity="0.1" d="M74.0248 170.169V171.739L76.9732 171.998V170.428L74.0248 170.169Z" fill="black"/>
<path opacity="0.1" d="M88.5136 174.63H81.7516V176.2H88.5136V174.63Z" fill="black"/>
<path opacity="0.15" d="M90.937 173.231V174.802L88.5132 176.2V174.63L89.5755 174.017V174.695L90.1617 174.356V173.671L90.937 173.231Z" fill="black"/>
<path d="M90.1617 173.671L89.5755 174.017V174.695L90.1617 174.356V173.671Z" fill="#A51C05" fill-opacity="0.87"/>
<path opacity="0.15" d="M90.1617 173.671V174.356L67.9832 161.55L68.5694 161.204L90.1617 173.671Z" fill="black"/>
<path opacity="0.15" d="M68.5694 161.204V161.889L67.9832 161.55L68.5694 161.204Z" fill="black"/>
<path d="M164.985 114.847C165.264 104.481 164.433 101.997 161.673 100.098L160.604 106.104C160.604 106.104 161.861 113.183 161.726 115.54C161.607 117.611 161.406 120.202 160.916 121.877C160.829 122.173 160.629 122.423 160.367 122.587C159.664 123.027 159.381 123.478 158.852 124.032C158.437 124.466 158.084 124.574 158.139 124.712C158.209 124.889 158.505 125.176 159.013 125.021C159.268 124.943 159.598 124.744 160.01 124.48C160.01 124.48 159.715 125.344 158.988 126.236C158.003 127.444 157.959 128.186 159.949 128.203C161.196 128.215 162.191 127.446 163.129 124.698C163.399 123.907 163.822 122.657 164.005 121.613C164.482 118.894 164.94 116.516 164.985 114.847Z" fill="#EEB3B5"/>
<path d="M159.351 99.3106C160.668 99.1195 162.459 99.3957 163.615 101.465C164.772 103.533 165.056 107.092 165.188 110.63C165.188 110.63 162.89 112.552 160.134 111.607L159.351 99.3106Z" fill="#A51C05" fill-opacity="0.87"/>
<path opacity="0.7" d="M159.351 99.3106C160.668 99.1195 162.459 99.3957 163.615 101.465C164.772 103.533 165.056 107.092 165.188 110.63C165.188 110.63 162.89 112.552 160.134 111.607L159.351 99.3106Z" fill="#DD524C"/>
<path d="M163.226 156.325C163.436 156.404 163.488 156.802 163.52 157.595C163.544 158.194 163.672 159.241 162.97 159.45C162.268 159.658 161.239 159.552 160.79 158.987C160.228 158.281 159.848 157.661 159.047 156.8C158.351 156.054 157.599 155.357 157.319 154.31C157.065 153.364 157.276 152.954 157.922 152.679C158.809 152.301 160.203 153.536 160.899 153.731C161.498 153.899 163.017 156.246 163.226 156.325Z" fill="#263238"/>
<path d="M163.226 155.591V156.564C163.226 156.564 162.215 157.341 160.768 156.631C160.726 156.537 160.513 155.239 160.513 155.239L163.226 155.591Z" fill="#EEB3B5"/>
<path d="M155.349 161.931C155.349 161.931 155.628 162.777 155.779 163.516C155.898 164.104 156.07 165.087 155.864 165.53C155.657 165.972 154.854 166.258 153.609 166.248C152.802 166.242 151.545 166.79 150.685 167.27C149.796 167.766 147.947 167.964 147.007 167.853C145.899 167.723 144.751 167.08 144.572 166.622C144.393 166.163 144.631 165.686 147.242 164.573C147.266 164.563 150.871 163.391 152.135 161.996L155.349 161.931Z" fill="#263238"/>
<path d="M155.349 160.879C155.349 160.879 155.346 161.601 155.349 162.013C155.353 162.426 154.866 163.041 153.605 162.996C152.719 162.964 152.101 162.726 152.136 161.996V160.945L155.349 160.879Z" fill="#EEB3B5"/>
<path d="M163.859 142.683C163.414 139.505 162.71 137.618 162.71 137.618C162.71 137.618 163.057 133.247 163.224 129.103C163.404 124.627 163.215 119 163.3 117.884C163.3 117.884 148.856 114.961 148.598 120.135C148.341 125.31 149.168 138.481 149.34 140.754C149.51 143.027 149.903 145.038 150.373 148.722C150.836 152.358 152.136 160.944 152.136 160.944C153.786 161.836 155.349 160.879 155.349 160.879C155.349 160.879 156.365 150.533 156.259 147.91C156.129 144.707 155.264 142.185 155.264 142.185C155.264 142.185 155.538 137.919 155.78 134.208C156.022 130.497 156.278 128.714 156.334 127.1L156.645 126.946C156.645 126.946 156.962 133.348 157.132 135.621C157.303 137.894 157.665 140.074 158.322 144.296C158.893 147.959 160.592 155.708 160.592 155.708C162.242 156.6 163.226 155.592 163.226 155.592C163.226 155.592 164.304 145.861 163.859 142.683Z" fill="#37474F"/>
<path d="M156.334 127.1C156.334 127.1 159.838 125.373 161.592 123.816C161.592 123.816 159.963 126.11 157.826 127.127C157.826 127.127 157.066 135.08 157.07 134.923L156.631 127.088L156.334 127.1Z" fill="#263238"/>
<path d="M153.216 97.6716L154.07 102.376L158.319 102.065L157.427 96.7327L153.216 97.6716Z" fill="#EEB3B5"/>
<path d="M162.807 101.722C162.386 100.442 160.763 99.0507 159.139 99.3519C156.156 99.906 153.79 100.499 152.029 101.128C150.542 101.659 149.188 102.943 149.065 107.833C149.065 107.833 148.567 119.233 148.558 121.438C152.291 122.915 156.174 122.869 158.32 122.401C162.787 121.425 163.326 119.572 163.326 119.572C163.326 119.572 163.383 111.374 163.25 107.834C163.135 104.826 163.096 102.6 162.807 101.722Z" fill="#A51C05" fill-opacity="0.98"/>
<path d="M149.937 91.9499C149.937 91.9499 148.86 93.6677 148.991 93.8313C149.121 93.9949 149.946 94.1262 149.946 94.1262L149.937 91.9499Z" fill="#9A4A4D"/>
<path d="M152.93 87.197C150.683 87.724 150.053 88.7313 149.921 92.3225C149.783 96.0748 150.192 97.2441 150.696 97.7377C151.036 98.0708 152.884 98.0907 153.81 97.8129C154.969 97.465 157.583 96.472 158.775 94.5592C160.176 92.3089 160.49 89.2945 158.908 88.0965C156.682 86.4106 153.844 86.9825 152.93 87.197Z" fill="#EEB3B5"/>
<path d="M149.946 88.1311C150.605 89.2603 152.036 89.7999 152.036 89.7999C152.467 90.2907 152.23 92.2051 152.988 92.5091C152.988 92.5091 153.314 91.1157 154.485 91.2638C155.664 91.4126 155.856 92.9071 155.136 93.8337C154.416 94.7602 153.718 94.4271 153.718 94.4271C153.718 94.4271 153.799 96.4063 154.701 97.5072C154.701 97.5072 155.707 97.8077 157.534 97.3751C158.657 97.1092 160.221 95.6625 160.858 94.1537C162.206 90.9617 162.242 88.1164 160.205 87.3097C159.954 85.8585 158.793 85.2317 157.479 84.9607C154.651 84.378 152.828 86.1427 150.652 85.9895C149.406 85.9015 149.173 86.8086 149.946 88.1311Z" fill="black"/>
<path d="M160.252 87.796L161.584 86.9694C161.356 86.6012 160.873 86.4882 160.505 86.7162C160.136 86.9443 160.023 87.4279 160.252 87.796Z" fill="#263238"/>
<path d="M134.062 109.596C134.76 109.907 142.993 115.991 144.276 115.282C145.56 114.573 152.145 106.88 152.145 106.88C154.057 103.711 152.145 101.108 152.145 101.108C152.145 101.108 150.033 101.498 148.93 103.168C147.826 104.839 143.053 110.824 143.053 110.824C141.874 110.234 140.699 109.636 139.528 109.03C138.564 108.531 137.597 108.032 136.653 107.495C136.417 107.361 136.106 107.23 135.911 107.037C135.445 106.576 135.525 105.462 135.534 104.857C135.538 104.573 135.542 104.29 135.575 104.008C135.615 103.662 135.681 102.815 135.058 103.084C134.938 103.136 134.841 103.23 134.761 103.334C134.663 103.461 134.587 103.605 134.538 103.758C134.421 104.124 134.458 104.525 134.35 104.894C134.335 104.948 134.315 105.004 134.274 105.042C134.223 105.09 134.148 105.104 134.077 105.102C133.17 105.074 132.312 103.803 131.895 103.128C131.709 102.828 131.527 102.493 131.207 102.344C130.71 102.112 130.114 102.444 129.794 102.889C129.387 103.457 129.264 104.194 129.345 104.888C129.456 105.85 129.825 106.74 130.528 107.394C131.592 108.388 132.748 109.011 134.062 109.596Z" fill="#EEB3B5"/>
<path d="M152.816 100.86C151.907 100.965 150.399 101.033 148.921 102.707C147.194 104.664 144.918 107.858 144.918 107.858C144.918 107.858 145.535 110.956 148.899 111.607C148.899 111.607 152.014 108.415 152.881 106.658C153.747 104.9 153.885 102.046 152.816 100.86Z" fill="#A51C05" fill-opacity="0.87"/>
<path opacity="0.7" d="M152.816 100.86C151.907 100.965 150.399 101.033 148.921 102.707C147.194 104.664 144.918 107.858 144.918 107.858C144.918 107.858 145.535 110.956 148.899 111.607C148.899 111.607 152.014 108.415 152.881 106.658C153.747 104.9 153.885 102.046 152.816 100.86Z" fill="#F06161"/>
</svg>
