<svg width="32" height="30" viewBox="0 0 32 30" fill="none" xmlns="http://www.w3.org/2000/svg">
<path d="M11.7434 15C14.2617 15 16.3103 13.0375 16.3103 10.625C16.3103 8.2125 14.2617 6.25 11.7434 6.25C9.22511 6.25 7.17654 8.2125 7.17654 10.625C7.17654 13.0375 9.22511 15 11.7434 15ZM11.7434 8.75C12.8264 8.75 13.7007 9.5875 13.7007 10.625C13.7007 11.6625 12.8264 12.5 11.7434 12.5C10.6604 12.5 9.78619 11.6625 9.78619 10.625C9.78619 9.5875 10.6604 8.75 11.7434 8.75ZM11.7434 17.1875C8.69013 17.1875 2.60965 18.65 2.60965 21.5625V23.75H20.8772V21.5625C20.8772 18.65 14.7967 17.1875 11.7434 17.1875ZM5.66294 21.25C6.75899 20.525 9.40779 19.6875 11.7434 19.6875C14.0791 19.6875 16.7279 20.525 17.8239 21.25H5.66294ZM20.9294 17.2625C22.443 18.3125 23.4868 19.7125 23.4868 21.5625V23.75H28.7061V21.5625C28.7061 19.0375 24.1393 17.6 20.9294 17.2625ZM19.5724 15C22.0907 15 24.1393 13.0375 24.1393 10.625C24.1393 8.2125 22.0907 6.25 19.5724 6.25C18.8678 6.25 18.2154 6.4125 17.6151 6.6875C18.4372 7.8 18.92 9.1625 18.92 10.625C18.92 12.0875 18.4372 13.45 17.6151 14.5625C18.2154 14.8375 18.8678 15 19.5724 15Z" fill="#544C4C"/>
</svg>
