<svg width="32" height="30" viewBox="0 0 32 30" fill="none" xmlns="http://www.w3.org/2000/svg">
<path d="M14.4335 22.5H17.0577V20H14.4335V22.5ZM15.7456 2.5C14.0225 2.5 12.3162 2.82332 10.7243 3.45151C9.13234 4.07969 7.68585 5.00043 6.46742 6.16117C4.00669 8.50537 2.62427 11.6848 2.62427 15C2.62427 18.3152 4.00669 21.4946 6.46742 23.8388C7.68585 24.9996 9.13234 25.9203 10.7243 26.5485C12.3162 27.1767 14.0225 27.5 15.7456 27.5C19.2256 27.5 22.5631 26.183 25.0238 23.8388C27.4845 21.4946 28.867 18.3152 28.867 15C28.867 13.3585 28.5276 11.733 27.8682 10.2165C27.2087 8.69989 26.2422 7.3219 25.0238 6.16117C23.8054 5.00043 22.3589 4.07969 20.7669 3.45151C19.175 2.82332 17.4687 2.5 15.7456 2.5ZM15.7456 25C9.9591 25 5.24854 20.5125 5.24854 15C5.24854 9.4875 9.9591 5 15.7456 5C21.5321 5 26.2427 9.4875 26.2427 15C26.2427 20.5125 21.5321 25 15.7456 25ZM15.7456 7.5C14.3536 7.5 13.0186 8.02678 12.0343 8.96447C11.05 9.90215 10.4971 11.1739 10.4971 12.5H13.1213C13.1213 11.837 13.3978 11.2011 13.89 10.7322C14.3821 10.2634 15.0496 10 15.7456 10C16.4416 10 17.1091 10.2634 17.6013 10.7322C18.0934 11.2011 18.3699 11.837 18.3699 12.5C18.3699 15 14.4335 14.6875 14.4335 18.75H17.0577C17.0577 15.9375 20.9942 15.625 20.9942 12.5C20.9942 11.1739 20.4412 9.90215 19.4569 8.96447C18.4726 8.02678 17.1376 7.5 15.7456 7.5Z" fill="#544C4C"/>
</svg>
