<svg width="32" height="30" viewBox="0 0 32 30" fill="none" xmlns="http://www.w3.org/2000/svg">
<path d="M23.6184 10H22.3063V7.5C22.3063 4.05 19.3671 1.25 15.7456 1.25C12.1241 1.25 9.18494 4.05 9.18494 7.5V10H7.8728C6.42946 10 5.24854 11.125 5.24854 12.5V25C5.24854 26.375 6.42946 27.5 7.8728 27.5H23.6184C25.0618 27.5 26.2427 26.375 26.2427 25V12.5C26.2427 11.125 25.0618 10 23.6184 10ZM11.8092 7.5C11.8092 5.425 13.5675 3.75 15.7456 3.75C17.9238 3.75 19.682 5.425 19.682 7.5V10H11.8092V7.5ZM23.6184 25H7.8728V12.5H23.6184V25ZM15.7456 21.25C17.189 21.25 18.3699 20.125 18.3699 18.75C18.3699 17.375 17.189 16.25 15.7456 16.25C14.3023 16.25 13.1213 17.375 13.1213 18.75C13.1213 20.125 14.3023 21.25 15.7456 21.25Z" fill="#544C4C"/>
</svg>
