<svg width="32" height="30" viewBox="0 0 32 30" fill="none" xmlns="http://www.w3.org/2000/svg">
<path d="M14.4335 21.25H17.0577V13.75H14.4335V21.25ZM15.7456 11.25C16.1174 11.25 16.4292 11.13 16.6812 10.89C16.9331 10.65 17.0586 10.3533 17.0577 10C17.0577 9.64583 16.9318 9.34875 16.6799 9.10875C16.4279 8.86875 16.1165 8.74917 15.7456 8.75C15.3738 8.75 15.062 8.87 14.8101 9.11C14.5581 9.35 14.4326 9.64667 14.4335 10C14.4335 10.3542 14.5594 10.6513 14.8114 10.8913C15.0633 11.1313 15.3747 11.2508 15.7456 11.25ZM15.7456 27.5C12.7058 26.7708 10.1962 25.1092 8.21658 22.515C6.23701 19.9208 5.24766 17.0408 5.24854 13.875V6.25L15.7456 2.5L26.2427 6.25V13.875C26.2427 17.0417 25.2529 19.9221 23.2733 22.5163C21.2938 25.1104 18.7845 26.7717 15.7456 27.5ZM15.7456 24.875C18.02 24.1875 19.9007 22.8125 21.3878 20.75C22.8749 18.6875 23.6184 16.3958 23.6184 13.875V7.96875L15.7456 5.15625L7.8728 7.96875V13.875C7.8728 16.3958 8.61635 18.6875 10.1034 20.75C11.5905 22.8125 13.4712 24.1875 15.7456 24.875Z" fill="#544C4C"/>
</svg>
