<svg width="32" height="30" viewBox="0 0 32 30" fill="none" xmlns="http://www.w3.org/2000/svg">
<path d="M28.867 7.5V22.5C28.867 23.1875 28.6098 23.7763 28.0954 24.2663C27.5811 24.7563 26.9635 25.0008 26.2427 25H5.24854C4.52686 25 3.90885 24.755 3.39449 24.265C2.88014 23.775 2.6234 23.1867 2.62427 22.5V7.5C2.62427 6.8125 2.88145 6.22375 3.3958 5.73375C3.91016 5.24375 4.52774 4.99917 5.24854 5H26.2427C26.9644 5 27.5824 5.245 28.0967 5.735C28.6111 6.225 28.8678 6.81334 28.867 7.5ZM5.24854 10H26.2427V7.5H5.24854V10ZM5.24854 15V22.5H26.2427V15H5.24854Z" fill="#544C4C"/>
</svg>
