<svg width="27" height="26" viewBox="0 0 27 26" fill="none" xmlns="http://www.w3.org/2000/svg">
<path d="M13.8092 8.25V18.25M2 13.25C2 14.7274 2.30545 16.1903 2.89892 17.5552C3.49239 18.9201 4.36225 20.1603 5.45884 21.205C6.55542 22.2496 7.85726 23.0783 9.29002 23.6436C10.7228 24.209 12.2584 24.5 13.8092 24.5C15.36 24.5 16.8956 24.209 18.3284 23.6436C19.7612 23.0783 21.063 22.2496 22.1596 21.205C23.2562 20.1603 24.126 18.9201 24.7195 17.5552C25.313 16.1903 25.6184 14.7274 25.6184 13.25C25.6184 11.7726 25.313 10.3097 24.7195 8.94481C24.126 7.5799 23.2562 6.33971 22.1596 5.29505C21.063 4.25039 19.7612 3.42172 18.3284 2.85636C16.8956 2.29099 15.36 2 13.8092 2C12.2584 2 10.7228 2.29099 9.29002 2.85636C7.85726 3.42172 6.55542 4.25039 5.45884 5.29505C4.36225 6.33971 3.49239 7.5799 2.89892 8.94481C2.30545 10.3097 2 11.7726 2 13.25Z" stroke="#544C4C" stroke-width="2.66667" stroke-linecap="round" stroke-linejoin="round"/>
</svg>
